/* XPM */
static char *e6951a83b30a456c84c05519d96b20a36EkK6sV9QAUOidYW[] = {
/* columns rows colors chars-per-pixel */
"64 64 56 1 ",
"  c black",
". c #28200C",
"X c #382C14",
"o c #202020",
"O c #2C2C2C",
"+ c #343434",
"@ c gray22",
"# c #400000",
"$ c #4C0000",
"% c #580000",
"& c #640000",
"* c #700000",
"= c #7C0000",
"- c #403018",
"; c #543C1C",
": c #046400",
"> c #5C4020",
", c #004040",
"< c gray25",
"1 c #484848",
"2 c gray33",
"3 c gray36",
"4 c #646464",
"5 c gray44",
"6 c #7C7C7C",
"7 c #880000",
"8 c #980000",
"9 c #A40000",
"0 c #A80000",
"q c #B00000",
"w c #BC0000",
"e c #C80000",
"r c #D40000",
"t c #E00000",
"y c #EC0000",
"u c #FC0000",
"i c #FC2020",
"p c #80502C",
"a c #885830",
"s c #A0643C",
"d c #BC7848",
"f c #FC4040",
"g c #FC5C5C",
"h c #FC7C7C",
"j c #980088",
"k c gray55",
"l c #989898",
"z c gray66",
"x c #B4B4B4",
"c c #FC9C9C",
"v c #FCB8B8",
"b c #C0C0C0",
"n c #D0D0D0",
"m c gainsboro",
"M c #FCD8D8",
"N c #ECECEC",
/* pixels */
"jjjjjjjjjjjjjjjjjjjjjjjjjjjjjjjjjjjjjjjjjjjjjjjjjjjjjjjjjjjjjjjj",
"jjjjjjjjjjjjjjjjjjjjjjjjjjjjjjjjsjjjjjjjjjjjjjjjjjjjjjjjjjjjjjjj",
"jjjjjjjjjjjjjjjjjjjjjjjjjjjjjjjjgjjjjjjjjjjjjjjjjjjjjjjjjjjjjjjj",
"jjjjjjjjjjjjjjjjjjjjjjjjjjjjjjjju9jjjjjjjjjjjjjjjjjjjjjjjjjjjjjj",
"jjjjjjjjjjjjjjjjjjjjjjjjjjjjjjjjw=jjjjjjjjjjjjjjjjjjjjjjjjjjjjjj",
"jjjjjjjjjjjjjjjjjjjjjjjjjjjjjjjj8%jjjjjjjjjjjjjjjjjjjjjjjjjjjjjj",
"jjjjjjjjjjjjjjjjjjjjjjjjjjjjj3<X8%X<jjjjjjjjjjjjjjjjjjjjjjjjjjjj",
"jjjjjjjjjjjjjjjjjjjjjjjjjjj<223+XX+22<jjjjjjjjjjjjjjjjjjjjjjjjjj",
"jjjjjjjjjjjjjjjjjjjjjjjjjj53566llk66535jjjjjjjjjjjjjjjjjjjjjjjjj",
"jjjjjjjjjjjjjj%=88wwnrbNx545lxbbnbxzl6455xbnnww88=%%jjjjjjjjjjjj",
"jjjjjjjjjjjj2%000z0zzzzx6556klzxzxzlk6456zzzzz0z=%#o2jjjjjjjjjjj",
"jjjjjjjjjjjjjj2kkk7kkkk4245556klllk6552424kkkkkkk=%2jjjjjjjjjjjj",
"jjjjjjjjjjjjjjjjjj=555541246kllk6kllk6421455555jjjjjjjjjjjjjjjjj",
"jjjjjjjjjjjjjjjjjjjjjjjjj46xnnx626xnnx64jjjjjjjjjjjjjjjjjjjjjjjj",
"jjjjjjjjjjjjjjjjjjjjjjjjj6zk56nb5bn65kz6jjjjjjjjjjjjjjjjjjjjjjjj",
"jjjjjjjjjjjjjjjjjjjjjjjjjkk7&&4blb4&&&kkjjjjjjjjjjjjjjjjjjjjjjjj",
"jjjjjjjjjjjjjjjjjjjjjjjjj56*$$$565$$$*65jjjjjjjjjjjjjjjjjjjjjjjj",
"jjjjjjjjjjjjjjjjjjjjjjjjj26x###4k4###x62jjjjjjjjjjjjjjjjjjjjjjjj",
"jjjjjjjjjjjjjjjjjjjjjjjjjj56x4O6l6O4x65jjjjjjjjjjjjjjjjjjjjjjjjj",
"jjjjjjjjjjjjjjjjjjjjjjjjjj4klklkkklklk4jjjjjjjjjjjjjjjjjjjjjjjjj",
"jjjjjjjjjjjjjjjjjjjjjjjjjj25zllzlzllz52jjjjjjjjjjjjjjjjjjjjjjjjj",
"jjjjjjjjjjjjjjjjjjjjjjjjjjj4x1zlklz1x4jjjjjjjjjjjjjjjjjjjjjjjjjj",
"jjjjjjjjjjjjjjjjjjjjjjjjjjjjbobk6kbobjjjjjjjjjjjjjjjjjjjjjjjjjjj",
"jjjjjjjjjjjjjjjjjjjjjjjjjjjjl5n656n5ljjjjjjjjjjjjjjjjjjjjjjjjjjj",
"jjjjjjjjjjjjjjjjjjjjjjjjjjjj6mn545nm6jjjjjjjjjjjjjjjjjjjjjjjjjjj",
"jjjjjjjjjjjjjjjjjjjjjjjjjjjj46n424n64jjjjjjjjjjjjjjjjjjjjjjjjjjj",
"jjjjjjjjjjjjjjjjjjjjjjjjjjjjj2n212n2jjjjjjjjjjjjjjjjjjjjjjjjjjjj",
"jjjjjjjjjjjjjjjjjjjjjjjjjjjjj2n1@1n2jjjjjjjjjjjjjjjjjjjjjjjjjjjj",
"jjjjjjjjjjjjjjjjjjjjjjjjjjjjjjl@O@ljjjjjjjjjjjjjjjjjjjjjjjjjjjjj",
"jjjjjjjjjjjjjjjjjjjjjjjjjjjjjjkj-.kjjjjjjjjjjjjjjjjjjjjjjjjjjjjj",
"jjjjjjjjjjjjjjjjjjjjjjjjjjjjjj6j-.6jjjjjjjjjjjjjjjjjjjjjjjjjjjjj",
"jjjjjjjjjjjjjjjjjjjjjjjjjjjjjjjj;Xjjjjjjjjjjjjjjjjjjjjjjjjjjjjjj",
"jjjjjjjjjjjjjjjjjjjjjjjjjjjjjjjjp>jjjjjjjjjjjjjjjjjjjjjjjjjjjjjj",
"jjjjjjjjjjjjjjjjjjjjjjjjjjjjjjjja>jjjjjjjjjjjjjjjjjjjjjjjjjjjjjj",
"jjjjjjjjjjjjjjjjjjjjjjjjjjjjjjjjd>jjjjjjjjjjjjjjjjjjjjjjjjjjjjjj",
"jjjjjjjjjjjjjjjjjjjjjjjjjjjjjjjjd>jjjjjjjjjjjjjjjjjjjjjjjjjjjjjj",
"jjjjjjjjjjjjjjjjjjjjjjjjjjjjjjjjd>jjjjjjjjjjjjjjjjjjjjjjjjjjjjjj",
"jjjjjjjjjjjjjjjjjjjjjjjjjjjjjjjjd>jjjjjjjjjjjjjjjjjjjjjjjjjjjjjj",
"jjjjjjjjjjjjjjjjjjjjjjjjjjjjjjjjd>jjjjjjjjjjjjjjjjjjjjjjjjjjjjjj",
"jjjjjjjjjjjjjjjjjjjjjjjjjjjjjjjjd>jjjjjjjjjjjjjjjjjjjjjjjjjjjjjj",
"jjjjjjjjjjjjjjjjjjjjjjjjjjjjjjjjd>jjjjjjjjjjjjjjjjjjjjjjjjjjjjjj",
"jjjjjjjjjjjjjjjjjjjjjjjjjjjjjjjjd>jjjjjjjjjjjjjjjjjjjjjjjjjjjjjj",
"jjjjjjjjjjjjjjjjjjjjjjjjjjjjjjjjd>jjjjjjjjjjjjjjjjjjjjjjjjjjjjjj",
"jjjjjjjjjjjjjjjjjjjjjjjjjjjjjjjjd>jjjjjjjjjjjjjjjjjjjjjjjjjjjjjj",
"jjjjjjjjjjjjjjjjjjjjjjjjjjjjjjjjg>jjjjjjjjjjjjjjjjjjjjjjjjjjjjjj",
"jjjjjjjjjjjjjjjjjjjjjjjjjjjjjjjjf>jjjjjjjjjjjjjjjjjjjjjjjjjjjjjj",
"jjjjjjjjjjjjjjjjjjjjjjjjjjjjjjjjfqjjjjjjjjjjjjjjjjjjjjjjjjjjjjjj",
"jjjjjjjjjjjjjjjjjjjjjjjjjjjjjjjjyqjjjjjjjjjjjjjjjjjjjjjjjjjjjjjj",
"jjjjjjjjjjjjjjjjjjjjjjjjjjjjjjjjy*jjjjjjjjjjjjjjjjjjjjjjjjjjjjjj",
"jjjjjjjjjjjjjjjjjjjjjjjjjjjjjjjjr*jjjjjjjjjjjjjjjjjjjjjjjjjjjjjj",
"jjjjjjjjjjjjjjjjjjjjjjjjjjjjjjjjr*jjjjjjjjjjjjjjjjjjjjjjjjjjjjjj",
"jjjjjjjjjjjjjjjjjjjjjjjjjjjjjjjjw*jjjjjjjjjjjjjjjjjjjjjjjjjjjjjj",
"jjjjjjjjjjjjjjjjjjjjjeeeyvg99998w&7yy8jjjjjjjjjjjjjjjjjjjjjjjjjj",
"jjjjjjjjjjjjjjjjj777q=8vhg#vv&879&#888jjjjjjjjjjjjjjjjjjjjjjjjjj",
"jjjjjjjjjjjjjjjttqq###rv$#vg:&##7%##$yy9988788#jjjjjjjjjjjjjjjjj",
"jjjjjjjjjjjjttttttt7##ug7999&7####$7&8=%%%7w8*##w%jjjjjjjjjjjjjj",
"jjjjjjjjjjjtqqqw99t*qr=8yye&e&&#*77778*####*8##88wt%jjjjjjjjjjjj",
"jjjjjjjjjjjq;w*w9$$##88=yweeewe97&8888====*t9$$$97=*%jjjjjjjjjjj",
"jjjjjjjjjijtw$$$$##u##*weeeeeeww9&8999999= #$###$$$#%#ttjjjjjjjj",
"jjjjjjjjjjj$$######u##97====&&887&8eee999*%%############7jjjjjjj",
"jjjjjjw&&$$$*7*##**7e97&=gi&&$*8*&==7gi=78t7*%7*########$#&&jjjj",
"jjwttw8$*$**###e  eeee=$nlh$$$*8#&&&Mcgi&8tt88##%#%7*%######&&jj",
"jjjwttww888*%##78e8==&&#hiw$88yw88*&hgir&&%&&&$$ #%##,%####%#&**",
"jjjjjjjjj88888****8888888www8yw&=88877==***&&&%$$$$$$####jjjjjjj"
};
