/* XPM */
static char *ccb9570ca6e44497cbd05994a49e15125NRhrwaJCJXsAmr7[] = {
/* columns rows colors chars-per-pixel */
"64 64 211 2 ",
"   c #0182FF",
".  c #0A86FF",
"X  c #048BFF",
"o  c #0A8CFF",
"O  c #138CFF",
"+  c #1A8FFF",
"@  c #0693FF",
"#  c #0C93FF",
"$  c #0B9AFF",
"%  c #1394FF",
"&  c #1B93FF",
"*  c #129BFF",
"=  c #1B9CFF",
"-  c #2294FF",
";  c #2995FF",
":  c #239CFF",
">  c #2C9CFF",
",  c #329CFF",
"<  c #0DA3FF",
"1  c #0EACFF",
"2  c #16A2FF",
"3  c #1AA5FF",
"4  c #13ACFF",
"5  c #1BABFF",
"6  c #15B1FF",
"7  c #1DB3FF",
"8  c #14BCFF",
"9  c #1CBDFF",
"0  c #24A4FF",
"q  c #2BA4FF",
"w  c #26A9FF",
"e  c #2AADFF",
"r  c #34A4FF",
"t  c #3BA5FF",
"y  c #35ACFF",
"u  c #3BABFF",
"i  c #22B5FF",
"p  c #2DB1FF",
"a  c #25BBFF",
"s  c #29BEFF",
"d  c #33B4FF",
"f  c #3CB3FF",
"g  c #34BAFF",
"h  c #3ABDFF",
"j  c #43A4FF",
"k  c #4AA7FF",
"l  c #44AAFF",
"z  c #4CACFF",
"x  c #52ADFF",
"c  c #42B5FF",
"v  c #4DB4FF",
"b  c #45BBFF",
"n  c #4ABEFF",
"m  c #51B3FF",
"M  c #5CB5FF",
"N  c #51B9FF",
"B  c #5BBDFF",
"V  c #66B6FF",
"C  c #64BBFF",
"Z  c #6CBCFF",
"A  c #79BFFF",
"S  c #1EC4FF",
"D  c #16C8FF",
"F  c #1BD2FF",
"G  c #1DDEFF",
"H  c #21C4FF",
"J  c #2BC5FF",
"K  c #25CBFF",
"L  c #2CCBFF",
"P  c #32C5FF",
"I  c #3DC2FF",
"U  c #31CCFF",
"Y  c #3ACDFF",
"T  c #2AD3FF",
"R  c #35D3FF",
"E  c #3BD4FF",
"W  c #36D9FF",
"Q  c #3BDBFF",
"!  c #1EE1FF",
"~  c #21EBFF",
"^  c #35E1FF",
"/  c #3EE3FF",
"(  c #3EECFF",
")  c #24F4FF",
"_  c #26FCFF",
"`  c #28FFFF",
"'  c #43C6FF",
"]  c #4DC1FF",
"[  c #44CAFF",
"{  c #4ACDFF",
"}  c #54C5FF",
"|  c #5DC1FF",
" . c #55CAFF",
".. c #5BCCFF",
"X. c #42D5FF",
"o. c #4CD2FF",
"O. c #4BDDFF",
"+. c #52D4FF",
"@. c #5ED0FF",
"#. c #54DBFF",
"$. c #5CDDFF",
"%. c #63C5FF",
"&. c #6CC2FF",
"*. c #66CBFF",
"=. c #6BCBFF",
"-. c #73C5FF",
";. c #7CC3FF",
":. c #73CFFF",
">. c #7ACAFF",
",. c #62D2FF",
"<. c #6BD3FF",
"1. c #63DCFF",
"2. c #6CDBFF",
"3. c #74D1FF",
"4. c #7CD3FF",
"5. c #72DEFF",
"6. c #7ED8FF",
"7. c #44E4FF",
"8. c #4BE5FF",
"9. c #44EAFF",
"0. c #4CEBFF",
"q. c #56E2FF",
"w. c #5CE3FF",
"e. c #51EDFF",
"r. c #5EEAFF",
"t. c #46F3FF",
"y. c #4AF6FF",
"u. c #4EFDFF",
"i. c #53F2FF",
"p. c #5BF4FF",
"a. c #55F9FF",
"s. c #5CF9FF",
"d. c #61E3FF",
"f. c #69E6FF",
"g. c #64ECFF",
"h. c #6BECFF",
"j. c #73E1FF",
"k. c #7BE5FF",
"l. c #72EDFF",
"z. c #7CEAFF",
"x. c #64F3FF",
"c. c #6BF4FF",
"v. c #63FCFF",
"b. c #6DFCFF",
"n. c #73F5FF",
"m. c #74FCFF",
"M. c #7BFDFF",
"N. c #8AC5FF",
"B. c #84CBFF",
"V. c #8CCDFF",
"C. c #94CBFF",
"Z. c #99CFFF",
"A. c #84D1FF",
"S. c #8DD6FF",
"D. c #83DBFF",
"F. c #8BDCFF",
"G. c #91D2FF",
"H. c #9BD2FF",
"J. c #95DBFF",
"K. c #9BDDFF",
"L. c #A5D8FF",
"P. c #ABDAFF",
"I. c #B5DEFF",
"U. c #84E7FF",
"Y. c #8CE3FF",
"T. c #82EDFF",
"R. c #92E5FF",
"E. c #9EE1FF",
"W. c #95EAFF",
"Q. c #9BECFF",
"!. c #86F2FF",
"~. c #8BF5FF",
"^. c #83FCFF",
"/. c #8DFCFF",
"(. c #93F5FF",
"). c #9BF4FF",
"_. c #94FCFF",
"`. c #9BFDFF",
"'. c #A5E3FF",
"]. c #A8E7FF",
"[. c #A3ECFF",
"{. c #ACEAFF",
"}. c #B4E4FF",
"|. c #BAE6FF",
" X c #B3ECFF",
".X c #BEEAFF",
"XX c #A3F3FF",
"oX c #A9F6FF",
"OX c #A3FDFF",
"+X c #ADFAFF",
"@X c #B6F2FF",
"#X c #BCF3FF",
"$X c #B3FDFF",
"%X c #BBFEFF",
"&X c #C7E8FF",
"*X c #C3EDFF",
"=X c #D5EDFF",
"-X c #D9EDFF",
";X c #C1F5FF",
":X c #CCF2FF",
">X c #C5FAFF",
",X c #CCFDFF",
"<X c #D3F5FF",
"1X c #DCF3FF",
"2X c #D1FDFF",
"3X c #DBFAFF",
"4X c #E5F3FF",
"5X c #E3FDFF",
"6X c #EDFCFF",
"7X c #F2FCFF",
"8X c #FBFEFF",
/* pixels */
"p.s 7 p  .6.XX_./.n.O.5   X     X * O._.oX&.y e e * X   X i #._.$X#XP.E.Q.!.q.7     < 0.M._.b.y.~ Q o.2.XX>X>X$X_.o.5 e ..Y.`.^.",
"K     * g b ] $.c.n.b.W X o 2 4 R g._.%XXXy = # #       # [ T.`.$XK.z V K.W. .%     $ g.OXM.e.K X   # = c >.&X,X$X!.q.j.oXOX/.v.",
"P < 5 I ] c w # i 8.M.n.9.g.w.e.n._.+X$X_.'   @       o ' T.(._.~.6.t O V.{.4.&   5 o.!.M.i.S     X 3 e q u &.*X,X$X_.oX,X%X_.f.",
"+.J I  .N g 5 X   < 7.M.m._.M.s.9.[ @.oX$X2.w 3   X p $._.`.h.w.f.j.B > -.}.'.*.b #.z.oX_.g.5   X * e c : % > S.:X,X$X,X3X;XR.2.",
"} d q r u d i $     J m._.M.9.a X   o ..oX+X!.g.W #.~._.`.l.X.2 a 1.U.:.4.'.}.].Y.T.XX+X!.g # X @ 2 p e *   o | {.<X,X3X&XH.B.*.",
"| f + & > q p *     6 i.M.a.8     @ X O j.+X$X_.m._.$X`.^.X.$   4 e.M.`.).[.}.*X@XXX,X$X!.= @ @ @ 2 p =       ] Y.#X<X4X=XI.G.&.",
"C B l z l r c 3 X   i c.M.t.$   # $ X w z.$X+X$X_.$X#X$XOXl.g H e.^.`._.^.).XX}.:X>X,X$X~.h . X @ * 2 X   X 2 o.j.Q.,X3X6X4XC.Z ",
", > j M M z v y # o g /._.w.o   X     L b._._._.!.2.N >.$X`.M.s.M.~.f.x.i.l.k.4.E.{.Q.T.f.R X   X 2 <     5 #.z.6.K.3X7X8X7XC.j ",
"O   O k k t , & % w ,.oX_.!.w       < 7.M.m.c.w.I = & B ;X$X_.g.,.h i i 9 X.$.<.D.J.|  .d.e.6     @ #   # [ k.Y.A.K.<X7X8X7X|.V ",
"k . O > - ; ; & N T.$X$X_._.2.g J K 9.^.m.y.7 # . X e 2.XX#XB > 0 5 $     6 X.f.z.3.> O N l.e.K D 7 w J o.j.Y.S.G.}.5X5X1X3X3XL.",
"F.-     O . + B `._._._.m.m.`._.m.v.M.m.a.8   X   $ Q h.j.u r % = 5 @     # ' !.Y.x & o u l.b.u._ t.x.g.z.D.M z ;.<X2X,X:X3X>X%X",
"!.U.3.%.B.G.D.T.m.g.w.#.Q 7.n.`._./._.g.I X   X   9 p.g.} o > : q w # X   X p j.:.t + O q 1.b.u.` t.g.z.Q.-.k -.E.>X$X$X X XQ.~.",
"w.m._.`.$X%X`.m.9.2 X     @ / M.`._.b.g X       X W h.o.*   - : : = # X     * [ f .   . :  .x.u.) Q O.j.6.-.V. X+X+X/.!.3.r & e ",
"5 Q g.c._.`.M.u.8           K v./.m.W .       # J w.R #   % & - & % * o X   3 2.=.-   % c $.8.K < J h y u B.#X+X_.k.' g O       ",
"  X * J c.`.M.7.X   # @ @   6 a.M.t.$     X 4 Q m.t.1   X o % = % & 3 #     % T.XXC O & f I i     ^ 8.h } $X$X~.g.p X X   . # . ",
"X X   @ 7.m.b.T     X # $ X i m.m.W       9 i.M.m.9.    @   % & % % * .     J n._.).D.=...Y K     u.m._.XX$X_.w.a     $ X   % 2 ",
"X       K v.m.Q     X       ^ b.n.g X $ $ 7.M.M.s.K   X #   * % X . X   @ J b._.$X,X,X>X+X/.b.u._ ^ n._.XX/.n.U <     X # X # = ",
"% # @   U m.`.r.o     . X 2 a.^./.@.X.7.7.M.`.`.c.5 @ 2 . X o o       X L c._.$X;X:X,X%XOXM.b.a.) 2 [ ~.Y.k.x.i     X     X o = ",
"% % o . p ~.$X!.*   . * s 0.M.`.$X$X_.M.M.m.^.`.n.J X $ X   X X X   @ W n.~.F.B.B.z M R.U.d.r.u.) 2 * [ 2.n.8.4     X .     X # ",
"%   o o q Q.,XXXy o > @.c.M.`.%X$XOXM.m.a.0.i.M.b.W             X 6 0.n./.6.- , k - O %.k. .8.u.~ * o 7 [ h.7.<   X   X X X # % ",
"O   o & | >X5X,XQ.W.Q.$X`.OX%X+X_.M.a.J 4 $ 4 7.m.s.K 5 = o # H Q i.m.~.&., O k ;.k   m <.d X.u.D     X 2 +.w.5       X # X . O ",
"& O & - &.5X5X,X$X`._._.$X%X$X`.M.a.F         $ 0.M.v.c.k.w.9.s.n.M._.6..   ; A H.A - m | f q.u.D       o b d.P $     X # o o o ",
". - > - Z 3X,X%X$Xc.r.o.2.oX$X`.n.Q $   X X X X o.`.^._.$X_.m.^.(.~.XXA.+ k N.C.C.V.-.>.D.j.b.u.G o X X   f 5.$.Y 4 X . X X X   ",
"o q r + B.,X%X_.2.a 2 X % 2.+XQ.' = X X X . X . ..$XOX$X/.j.k.T.oXoX@XZ k Z.P.Z z '.+X%X`./.m.u.~ $   . . e 1.5.w.J         .   ",
"0 v l , L.$X`.1.0     $ P h.!.v o * = X       o 1.$X$X_.w.w e  .XX>X:XV.;.P.P.A >.$X$X`.`.M.m.u._ L #     3 o.2.w.Y $     X # = ",
"v M x M Q.(.w.i # X X J g._.6.- & > * $ X X . : F.$X!.o.5 X * p !.$X,X3X1X-X<X#X$X`._.n.!.f.i.u.` u.T   X i X.@.2.$.Y 4 o # 3 y ",
"C Z >.XXT.[ * .   X s x._.$X&.. - = % *   . % 2.+X/.I *     X # d.`.$X2X3X3X2X%X_.c.+.R [ w s K ) u.x.K 5 h } -.4.5.1.E [ g c r ",
".X=X:X#X=.o . 3 K / h._.$X;XC O & % o     4 0.M._.5.o     X # * j.$X,X3X|. X$X(.f.s # @ # # X $ < L x.v.c.j.=.v z Y.(.M._.~.R.J.",
"7X7X1XL.t & = +.s.m._.$X,X].>   % o     X W n._._.{   O o X . . D.%X,X*XG.Q.`.m.Q #     X o   X   X Q m._.+XK.V.J.>X$X`.$X$X2X5X",
"7X7X-XZ.Z J.R.~.M.^.`.$X,X:Xt .   o 3 S / n._._.n.w   $ o     O [.$XoX{.}. XoX_.#.$   @ X % X @ X X g !.$X,X3X,X;X$X/.T.~.XX,X5X",
"5X5X-X&X|.#XoX~.g.g.n.OX%X2XW.3.,.5.n.v.m._.U.M.i.<   X   . o v )._.!.W.{.*X>X$X!.p # * * % # X X . = j.+X>X>XoXR.2.[ [ ' @.W.>X",
",X<X&X*X XXX!.+.a i Q n.`.%XOX_.m._._.M.`.$XQ._.c.5   X o q &.(.M.g.w.j.R.#X,X$X).j.w # o # #     X d /.$X#XS...b g 5 2 2 d 5.oX",
"$X#XP.E.Q.T.w.7 X   1 0.M.`.M.m.0.$.,.5.XX>X>X$X_.o.5 e ..Y.`.^.r.J i p  .6.XX_._.n.O.5     X   X * O._.+X=.u e w *     X i #._.",
"$XE.z C K.W...%     # g._.M.0.L X   o = l >.*X,X$X!.q.5.oXOX/.v.K     * g b n $.g.M.c.W X # 3 6 D 9.n._.Q.y * * #     X # ' U.`.",
"~.6.t O V.{.3.&   3 [ !.M.i.S     X 3 p q u &.;X,X$X_.+X,X%X(.h.P < 5 h n b w # i 9.M.m.7.z.e.( _ u.b._._.' . @       # [ T._./.",
"f.5.| - -.|.].%.b #.T.oX_.g.3 X X $ e c : % > S.:X,X$X,X3X;XR.2.{ P I  .N g 5 X   < 7.M.m./.b.y.! J o./.+X2.w 2   . e #._.`.l.w.",
"a d.U.>.4.'.|.'.Y.T.XX,XQ.b % X # 3 f u % . . | {.<X,X3X&XH.B.&.} d q r u d i @     J n.OX^.0.7 @   o ..+XoX!.g.Q #.!._._.l.X.3 ",
"6 e.M.).(.[. X*X XXX>X,XXX> O # % q p =       ] R.@X3X1X=XI.S.&.| f + & > w p *     4 i.M.a.8     X   % j.$X$X_.m._.%X`.^.X.$   ",
"i.M.`._.^.).[. X:X>X,X$X(.h . X # = 3 X   X 3 o.j.Q.,X3X7X4XC.Z C B z k l y c 3 X   i c.M.t.$   @ $ X w z.$X+X$X_.+X#X$XOXl.g S ",
"M.~.f.x.e.l.U.4.E.{.Q.T.h.R X   X 2 <     5 #.l.6.K.3X7X8X7XC.j , > t V M z v y * o h ~._.w.#   @     L b._._._.~.2.N >.$XOXM.s.",
",.h i 7 9 X.$.<.F.J.|  .d.e.6     X #   # [ z.Y.A.L.3X7X6X6X|.C O   + j k j , - O w ,.oX_.c.5       < 7.M.m.b.w.I = & B >X$X_.f.",
"3 w $     6 X.f.k.3.> O } f.8.T K i w J { j.Y.S.H.}.,X5X:X:X3XE.z . O > + - ; + N T.$X_./.M.O.9 8 K 0.M.m.u.5 # X X w 2.XX#X| q ",
"= 3 #     # [ T.Y.m + O l T.M.b.s.n.!.g.z.D.V z -.;X$X>X#X>X>XoXD.&     O O & B `._._._.m.m.b.u.` u.m.m.u.8   X   $ Q c.5.u q & ",
"q w $ X   X p 5.=.r + o r D.`./.M.~.[.z.[.-.t %.R.+X`.$XXXQ.Q.!.~.U.:.C 4.S.D.T.m.g.q.#.Q 7.v.a.` u.m.g.I .       9 e.h.} o : - ",
": = # X     * [ c o   . - *./.m.c.1.<.k.5.%.<.W.)./.n.!.,.q & w r.m._._.+X+X`.M.9.3 o     @ 8.u.` a.b.s X       X R x.{ %   & : ",
"* % % o X   0 #.[ %   o g $.w.L 3 P b e q @.!./.M.g.U g o       5 Q f.c./._.^.u.8           K u.` u.W .       @ J d.R #   % % = ",
"o # 2 # X   * r.i.s o * i P i     ^ 8.s P b.b.x.0.7 X X   . # X   X * J v.m.b.9.X   # @ X   4 y.` i.<     X 1 O.b.i.1   X # # * ",
"@ # $       H u.u.9.T K T K H     u.u.y.t.u.u.^ 7     $ X   @ < X X   @ ^ a.u.T     X @ $ X 6 u.u.T       9 t.u.a.(     @   # @ ",
"X X X   @ D ) ` ` ` ` ` ` ` ` ` ` ! ` ` ) ) _ D <     X @ X @ $   X     F ` ` G     X       ! u._ 8 X $ $ ! ` ` ` D   X @   @ @ ",
"      X L t.u.u.t.t.t.u.y.y.u.u.y.2 J t.( / t.i     X     X X 2 o * X   U u.u./ X     . X 4 b.u.) R U ^ ( u.u.u.t.5 @ = X X @ # ",
"X   X W b.c.$.o.' w g q.g.$.g.m.c.w * [ #.c.9.4     . X     X # * o o X e c.m.x.&   o % a 0.b.u.` u.m.m.m.m.m.m.m.J X #     X X ",
"X 6 9.m.~.2.% = y O o } 2...f._.d.* X 5 ' h.9.2   X   X X X # % % . o o w T._.!.y o : ,.c._.b.y.` u.m.m.a.0.i.M.b.W             ",
"Q i.m.~.=.> . u | r   v 3.v ,.m.L     X 5 +.w.3       X o X . O O   o & B +X$X$XQ.W.T.$X`._.m.u.` u.a.J 4 $ 4 7.M.s.K 7 = X $ S ",
"n.^./.4..   - C A.C - m >.v Y._.'       X b d.P $     X o o o o & O & - -.,X,X2X$X`._._.`./.m.u.` u.F         @ 0.M.s.c.k.w.9.s.",
"/.~.oXA.+ z ;.V.B.V.-.B.'.}.>X$X2.#   X   u 5.$.Y 4 X X X X .   . - > - Z 3X,X%X$Xb.g.o.5.!.m.u._ W $   X   X . o._./._.$X_.M.^.",
"oXoX@XZ j Z.L.V x ].>X$X,X3X,X$XT.&   X X p 1.j.w.J         X   o q r + B.,X$X_.2.i 2 . % 1.b.9.8 $ o X X X X o ..$XOX$X/.j.j.U.",
"XX>X:XC.A P.L.A >.+X$X`.$X,X$X_.M.X.#     5 +.2.w.Y $     X # = 0 v l , K.$X`.d.0     < P l.i.6 X * 2 X   X X o 1.$X$X_.w.e p } ",
"!.$X,X3X-X1X<X#X$X`._.n.~.Q.XX_.M.v.K     7 [ ,.5.w.Y 4 o # = d v M x M Q.(.w.w o X X J g.m.W @ @ 2 % # X   . : D.$X~.o.5 X * p ",
"w.`.%X,X3X3X2X$X).n.O.R ' e n { x.m.s.T 5 h  .=.4.5.$.E [ g f r C Z >.[.T.[ * .   X s c._.m.J X @ $ % *     % 5.$X/.I #     X # ",
"j.$X2X3X|. X%X(.g.s # @ # O o $ 3 P c.v.c.j.=.v v S.(.M._.~.W.K..X<X:X#X-.o . 5 K 7.g._.`.n.i @ $ # X     4 9.M._.5.o     X # * ",
"D.%X,X*XS.Q.`.m.W #     . o       X / M._.+XK.G.J.>X$XOX$X$X2X3X7X7X1XL.t % = +.s.m._.$X_.w.*   @ X X   X W M._._.{   o o . X   ",
"[.$XoX{.}. X+X_.#.#   @ X * o # X . d T.$X,X3X:X>X+X~.T.~.oX,X5X7X7X=XC.Z K.J.(.^.M.`.$X_.c.3     . 3 9 / n._._.z.i   * .     O ",
")._.!.R.{.*X>X$X!.p # # * * % X X o - Y.>X3X,XoXR.2.[ [ ' ,.W.>X5X6X-X&X}.#XXX~.x.g.n.`.OX/.8.T F / c.v.m.`.U.m.i.<   X   X o N ",
"M.g.w.j.R.#X,X$X`.j.e # o # # .   X c +X,X#XD...b g 5 2 2 p 5.oX,X<X&X*X@XXX!.#.i i X.m.$X_.m.u.` u.b.M._.$XQ._.c.5     o q *.Q."
};
